<?xml version="1.0" standalone="no"?>
<!DOCTYPE svg PUBLIC "-//W3C//DTD SVG 20010904//EN"
 "http://www.w3.org/TR/2001/REC-SVG-20010904/DTD/svg10.dtd">
<svg version="1.0" xmlns="http://www.w3.org/2000/svg"
 width="180.000000pt" height="180.000000pt" viewBox="0 0 180.000000 180.000000"
 preserveAspectRatio="xMidYMid meet">
<metadata>
Created by potrace 1.14, written by Peter Selinger 2001-2017
</metadata>
<g transform="translate(0.000000,180.000000) scale(0.100000,-0.100000)"
fill="#000000" stroke="none">
<path d="M1010 1243 c-60 -10 -171 -48 -245 -83 -115 -54 -150 -64 -240 -63
-85 1 -175 25 -252 68 -24 13 -43 20 -43 15 0 -18 98 -92 165 -126 139 -69
246 -68 416 5 170 72 259 94 389 95 123 1 180 -12 270 -61 l45 -24 -57 54
c-62 60 -134 99 -216 116 -51 11 -180 13 -232 4z"/>
<path d="M1208 1030 c-79 -14 -147 -39 -277 -103 -113 -56 -131 -62 -200 -66
-91 -4 -163 11 -258 54 -40 19 -73 30 -73 26 0 -19 142 -140 193 -165 130 -64
249 -59 415 18 153 70 259 98 372 99 128 0 214 -27 327 -104 23 -16 44 -29 48
-29 3 0 -13 28 -37 62 -113 162 -309 242 -510 208z"/>
<path d="M1595 754 c-8 -9 -15 -19 -15 -24 0 -16 31 -39 45 -34 17 7 26 30 19
48 -9 22 -32 27 -49 10z"/>
<path d="M658 647 c-82 -28 -166 -85 -218 -146 -22 -25 -38 -47 -36 -48 2 -2
37 13 79 32 97 45 162 58 256 53 69 -4 88 -10 201 -66 147 -73 251 -102 364
-102 97 0 163 16 245 60 64 35 168 135 197 192 l17 32 -24 -17 c-50 -36 -126
-78 -179 -99 -46 -18 -75 -22 -175 -23 -139 0 -198 15 -385 97 -99 44 -125 51
-195 55 -66 3 -92 0 -147 -20z"/>
</g>
</svg>
