<svg width="1438" height="437" fill="none" xmlns="http://www.w3.org/2000/svg">
<path opacity="0.2" d="M5 339.583V5H1433V344.621C1409.33 363.958 1319.88 437.04 1133.61 431.724C997.574 424.027 842.807 389.71 703.958 357.204C690.866 354.139 677.914 351.09 665.132 348.081C610.206 335.15 558.434 322.961 512.248 313.451C455.387 301.742 406.576 294 370.5 294C237.199 294 144.241 306.026 84.5096 318.097C54.6442 324.132 33.0873 330.179 18.9498 334.738C13.0132 336.652 8.38521 338.304 5 339.583Z" fill="#56CCF2" stroke="#347EAE" stroke-width="10"/>
<path opacity="0.2" d="M423 325.5C244 278 186 315 0 346V338.5V0H1438V346C1370.5 325.5 1240.5 315 1147.5 315C1046 315 582.999 367.958 423 325.5Z" fill="#252384"/>
<path d="M411 293.5C158.5 275.5 14 345 0 346V345V0H1437.5V345C1416.5 361 1326.2 391.7 1133 386.5C860 372 552.641 303.597 411 293.5Z" fill="url(#paint0_linear)"/>
<defs>
<linearGradient id="paint0_linear" x1="900.968" y1="-7.30758e-06" x2="816.492" y2="551.646" gradientUnits="userSpaceOnUse">
<stop stop-color="#5E3FB5"/>
<stop offset="0.802733" stop-color="#347EAE"/>
</linearGradient>
</defs>
</svg>
