<svg width="122" height="88" viewBox="0 0 122 88" fill="none" xmlns="http://www.w3.org/2000/svg">
<path d="M54.2657 2.18781C47.2141 2.9171 47.3117 2.86848 48.6781 5.49389C50.2153 8.50826 50.5569 12.1547 49.2881 12.1547C48.0193 12.1547 48.0437 13.1514 49.3369 14.7801C50.1421 15.8011 50.4593 17.1867 50.8253 21.5138C51.3621 27.7856 51.2157 27.4453 53.2897 27.032C55.9737 26.5215 56.2177 26.2055 55.7053 23.7746C55.4369 22.6077 55.1441 20.2254 55.0709 18.4751L54.9001 15.3149L57.5597 14.9989C63.0497 14.3182 63.2937 10.8906 57.8037 11.3525L54.1193 11.6685L54.2657 8.8729L54.4121 6.07732L58.2673 5.59113C62.2445 5.08063 62.8301 4.69168 62.9277 2.30936C62.9521 1.31268 62.8301 1.31268 54.2657 2.18781Z" fill="white"/>
<path d="M76.4454 3.71934C76.2746 3.91381 76.1282 4.9105 76.1282 5.93149C76.1282 7.36574 75.4206 9.0674 73.2734 12.7867C70.931 16.7978 67.271 23.5801 66.4414 25.4033C66.2706 25.8166 69.345 27.2265 70.4186 27.2265C70.7846 27.2265 71.5898 25.9624 72.2242 24.4309C73.8834 20.347 77.9826 12.2762 78.5438 11.9116C79.1782 11.547 79.1538 12.3492 78.3974 19.6177L77.8118 25.4033L78.9586 26.1569C80.1054 26.9105 80.203 26.8376 84.9122 21.8541C87.523 19.0586 89.841 16.9193 90.0118 17.0895C90.3778 17.4298 87.279 24.9657 84.6194 30.2409C82.7894 33.863 82.8382 34.0088 86.181 34.7381L87.6938 35.0541L89.6702 30.2895C90.7682 27.6641 92.3786 23.4342 93.2326 20.9061C94.355 17.6729 95.331 15.7525 96.5022 14.5127L98.1858 12.7624L95.3798 11.474C91.6954 9.79668 92.1102 9.65083 87.1326 14.3182C84.717 16.579 82.6918 18.3536 82.6186 18.2807C82.521 18.2077 82.6918 16.4088 82.9358 14.2939C83.1798 12.179 83.497 9.55359 83.619 8.43536L83.8386 6.39337L80.4714 4.9105C76.6894 3.23315 76.909 3.28177 76.4454 3.71934Z" fill="white"/>
<path d="M27.8404 10.4044C20.9352 14.4398 20.7888 14.6099 23.1312 16.1414C25.3516 17.5757 27.7672 21.7326 26.6204 22.1702C25.4248 22.632 25.7176 23.2884 27.572 24.3823C28.792 25.0873 29.9632 26.5945 31.598 29.5359C34.5016 34.6895 34.0136 34.5923 39.9916 31.2619C45.1644 28.3691 45.9696 27.4696 45.5304 25.1359C45.2132 23.5315 45.7744 23.4099 41.1872 26.011C36.6244 28.6122 36.3316 28.6122 34.5992 25.768C32.818 22.8265 32.818 22.7779 35.6484 21.1249C37.9664 19.7635 38.0884 19.5934 37.8688 18.0619C37.5272 15.7525 37.4784 15.7282 34.16 17.7458C32.5252 18.7425 31.11 19.4718 31.0368 19.3746C28.182 15.4608 28.304 14.6342 31.9396 12.3978C34.9164 10.5746 35.1116 10.3315 35.1116 8.62982C35.136 6.19888 34.9408 6.2475 27.8404 10.4044Z" fill="white"/>
<path d="M22.8873 38.1414C21.3989 38.5304 18.8613 39.4055 17.2753 40.1348C13.0541 42.0066 9.19889 41.958 5.24609 39.916C1.85449 38.1901 1.14689 38.2387 3.51369 40.0376C8.44249 43.7812 12.6881 44.1702 19.5689 41.5204C26.4741 38.8707 30.1585 38.7735 35.8681 41.1072C37.8445 41.9094 35.6485 39.989 33.3793 38.9193C30.5489 37.6066 26.3277 37.2906 22.8873 38.1414Z" fill="white"/>
<path d="M58.731 37.9227C57.6086 38.1414 54.9734 39.0409 52.875 39.8917C47.8486 41.9337 44.6278 41.9823 40.6506 40.0619C39.089 39.3083 37.6006 38.6033 37.3322 38.4818C37.0638 38.3602 37.3322 38.8221 37.9422 39.4785C41.2606 43.0763 47.9218 44.2674 52.9726 42.1525C59.6094 39.3812 64.6602 38.7006 68.3202 40.0619C72.2242 41.5448 72.1022 41.5205 71.0042 40.5724C68.247 38.263 62.7814 37.0718 58.731 37.9227Z" fill="white"/>
<path d="M92.281 38.2144C90.8414 38.6033 88.6454 39.3569 87.401 39.8917C82.3014 42.1525 78.9586 42.0796 73.9322 39.5757L71.4922 38.3845L73.371 40.0619C77.4458 43.7326 82.1794 44.1459 89.231 41.4961C95.331 39.2111 99.6254 38.8464 103.432 40.2807C106.726 41.5448 107.116 41.3017 104.359 39.6973C100.528 37.4608 96.7706 36.9989 92.281 38.2144Z" fill="white"/>
<path d="M26.7181 43.5382C25.1809 43.9028 22.7653 44.8266 21.3501 45.5559C17.8609 47.3791 13.0785 47.4277 9.51614 45.7017C8.17414 45.0697 6.85654 44.4376 6.58814 44.3161C6.31974 44.2188 6.75894 44.8266 7.56414 45.6774C11.5169 49.9315 17.0801 50.8553 23.1801 48.2785C30.0609 45.3614 35.6973 44.9724 39.9185 47.1117C42.5537 48.4487 42.5537 47.6708 39.8941 45.726C36.0877 42.9304 32.0129 42.2741 26.7181 43.5382Z" fill="white"/>
<path d="M61.6834 43.4895C60.317 43.8785 57.9014 44.8022 56.3154 45.5558C52.2894 47.452 47.7266 47.452 43.9934 45.5315C40.675 43.8055 40.8946 44.8265 44.3594 47.2575C45.921 48.3271 47.995 49.2752 49.581 49.5912C52.4846 50.1989 52.8262 50.126 61.1954 47.1359C66.2218 45.3613 70.9066 45.2884 74.4202 46.9171C75.4938 47.4276 76.5918 47.9381 76.8602 48.0597C77.1286 48.1569 76.7138 47.5735 75.9086 46.747C72.8098 43.4409 66.7586 42.0553 61.6834 43.4895Z" fill="white"/>
<path d="M96.2095 43.5139C94.7943 43.9271 92.0615 44.9238 90.1339 45.7503C86.0591 47.5492 82.8871 47.5249 78.8123 45.6531C77.4703 45.021 76.1527 44.4376 75.8843 44.3161C74.7863 43.8299 77.4215 46.3094 79.4223 47.6222C83.9363 50.5879 86.3763 50.5393 95.6483 47.1846C100.748 45.3371 105.701 45.2885 109.288 47.063C112.045 48.4244 112.191 48.4001 110.727 46.8686C107.629 43.5382 101.333 42.0796 96.2095 43.5139Z" fill="white"/>
<path d="M32.086 49.3481C30.5244 49.737 27.816 50.8309 26.0348 51.779C21.8624 53.9669 18.2268 54.1127 14.2008 52.2409C10.8336 50.6851 10.6872 50.9039 13.4444 53.4564C17.8364 57.4917 22.204 58.0022 28.7188 55.2066C36.5024 51.9006 41.4556 51.9006 46.36 55.1823C49.3368 57.1757 49.4344 56.7868 46.7748 53.7724C43.066 49.5425 37.7224 47.9624 32.086 49.3481Z" fill="white"/>
<path d="M67.8565 49.1293C66.6609 49.3724 63.7817 50.4906 61.4393 51.5845C56.6325 53.8696 52.9481 54.0641 49.0441 52.2409C47.9705 51.7547 46.8725 51.2442 46.6041 51.147C46.3357 51.0254 46.9945 51.8519 48.0681 52.9945C52.3625 57.5403 56.6081 58.0022 64.4893 54.8663C72.1997 51.779 76.5429 51.9735 81.9353 55.5956L84.0825 57.0298L83.1553 55.4497C80.3249 50.6122 73.7857 47.9138 67.8565 49.1293Z" fill="white"/>
<path d="M102.48 49.2752C101.016 49.5912 98.088 50.7094 95.9896 51.7304C91.5488 53.9426 87.4252 54.0641 83.57 52.0951C81.0568 50.8067 80.886 51.3901 83.2284 53.4321C87.4496 57.1271 92.5736 57.9536 97.356 55.7415C105.75 51.852 113.753 51.9249 117.413 55.9603C118.535 57.2 119.243 57.1514 118.56 55.863C115.802 50.7337 108.8 47.8652 102.48 49.2752Z" fill="white"/>
<path d="M44.0421 56.4707C43.3833 57.1271 43.7981 58.3425 44.6521 58.3425C45.5549 58.3425 45.9209 57.0541 45.1889 56.4464C44.7741 56.0818 44.4081 56.1061 44.0421 56.4707Z" fill="white"/>
<path d="M78.7389 56.6653C78.3241 57.7349 79.3488 58.7315 80.1052 57.978C80.7152 57.3702 80.3248 55.9117 79.544 55.9117C79.2512 55.9117 78.8852 56.252 78.7389 56.6653Z" fill="white"/>
<path d="M113.875 56.6653C113.46 57.7349 114.485 58.7315 115.241 57.978C115.851 57.3702 115.461 55.9117 114.68 55.9117C114.387 55.9117 114.021 56.252 113.875 56.6653Z" fill="white"/>
<path d="M18.3001 59.4121C16.3481 60.1171 12.3221 63.0585 11.6633 64.274C11.3705 64.8088 11.3217 65.1735 11.5413 65.0519C18.6417 61.5757 20.4229 61.4541 26.1813 64.1038C35.5509 68.3823 40.4797 68.0663 45.9209 62.7911C49.2637 59.558 49.7273 58.148 46.7505 60.2873C41.9193 63.7878 37.0881 63.9094 29.1093 60.7248C24.0829 58.7558 21.2037 58.3911 18.3001 59.4121Z" fill="white"/>
<path d="M53.0702 59.5337C51.0694 60.2387 50.3374 60.7249 47.9462 62.9127C45.6526 65.0033 45.9942 65.3436 48.8978 63.8851C53.2898 61.6729 56.291 61.7215 61.2686 64.1282C70.199 68.4553 76.8846 67.726 81.9354 61.8917C84.473 58.926 84.473 58.4398 81.8622 60.1657C76.1038 63.9823 71.4922 64.0309 62.9522 60.2873C59.2678 58.6829 56.1446 58.4398 53.0702 59.5337Z" fill="white"/>
<path d="M87.108 59.9956C85.156 60.9194 79.4952 65.8056 81.252 65.052C81.5204 64.9547 82.7892 64.347 84.1068 63.7393C88.4012 61.7216 90.9632 61.7945 96.0628 64.1282C105.725 68.5769 112.826 67.5802 117.584 61.1382C119.487 58.5614 119.267 58.4398 116.217 60.4818C111.166 63.8608 106.457 63.8608 98.2588 60.4818C93.3544 58.4641 90.5972 58.3426 87.108 59.9956Z" fill="white"/>
<path d="M4.88019 74.7027C4.48979 74.8486 3.83099 75.0431 3.46499 75.1646C2.92819 75.3348 2.90379 75.5293 3.34299 75.9668C4.02619 76.6475 4.09939 82.9679 3.41619 83.3812C2.41579 83.9889 2.97699 84.5967 4.51419 84.5967H6.10019V79.4917C6.10019 76.6718 6.00259 74.411 5.85619 74.4353C5.73419 74.4353 5.29499 74.5812 4.88019 74.7027Z" fill="white"/>
<path d="M8.12525 74.7028C7.68605 75.1647 7.71045 85.0829 8.17405 85.0829C9.24765 85.0586 9.51605 83.916 9.51605 79.3702C9.51605 74.7028 9.19885 73.6332 8.12525 74.7028Z" fill="white"/>
<path d="M23.7412 74.7028C23.5704 74.8973 23.424 75.7724 23.424 76.6475C23.424 77.9359 23.2288 78.2763 22.4724 78.2763C21.3256 78.2763 19.52 80.4641 19.52 81.874C19.5444 83.6729 20.3252 84.2807 22.7652 84.4265L25.132 84.5724V79.4674C25.132 74.7028 24.8148 73.6332 23.7412 74.7028ZM23.3264 81.0718C23.1312 82.8221 21.472 83.2597 21.472 81.558C21.472 80.221 21.838 79.7348 22.814 79.7348C23.2532 79.7348 23.4484 80.1724 23.3264 81.0718Z" fill="white"/>
<path d="M26.5717 75.6751C27.1329 77.8873 27.5965 77.9602 27.8893 75.8453C28.0113 74.9945 27.8161 74.6055 27.1329 74.484C26.3521 74.3138 26.2789 74.484 26.5717 75.6751Z" fill="white"/>
<path d="M34.2088 76.6961L33.062 79.0055L32.0616 76.9392C31.3052 75.4077 30.744 74.8729 29.9144 74.8729C28.4992 74.8729 28.4748 74.8 30.5 78.1304C31.9396 80.4641 32.1836 81.2663 31.9396 82.7249C31.6468 84.5967 32.1104 85.2773 33.3548 84.7912C33.916 84.5967 34.0868 83.916 34.0136 82.2387C33.9404 80.2696 34.1844 79.5889 35.746 77.474C37.2588 75.4077 37.454 74.9215 36.7952 74.6784C35.5264 74.1923 35.38 74.3138 34.2088 76.6961Z" fill="white"/>
<path d="M64.8553 74.5812C64.7577 74.7027 64.7333 76.9878 64.8065 79.6862L64.9773 84.5967L68.1005 84.5481L71.2481 84.4751V82.8221C71.2481 81.9226 71.2969 81.0232 71.3457 80.8287C71.3945 80.6342 71.0773 80.3911 70.6381 80.3182C70.1501 80.221 69.8085 80.5613 69.7109 81.2906C69.5889 82.0928 69.1741 82.4575 68.1981 82.5547L66.8561 82.7249V78.5436C66.8561 74.5569 66.1973 73.2685 64.8553 74.5812Z" fill="white"/>
<path d="M98.4052 74.7028C97.8684 75.2619 98.0392 85.0829 98.6004 85.0829C102.773 85.0829 105.14 79.3702 101.382 78.3735C99.918 77.9845 99.796 77.7901 99.8936 76.1613C100.016 74.484 99.308 73.8033 98.4052 74.7028ZM101.821 80.4641C102.163 81.3392 101.187 82.6519 100.235 82.6519C99.796 82.6519 99.552 82.1171 99.552 81.1934C99.552 79.589 101.26 79.0542 101.821 80.4641Z" fill="white"/>
<path d="M104.749 74.7514C104.456 75.2619 104.676 84.4995 104.993 84.8398C105.53 85.3746 106.921 84.4752 106.652 83.7702C106.506 83.3812 106.384 81.0962 106.384 78.7138C106.384 74.6542 105.75 73.0984 104.749 74.7514Z" fill="white"/>
<path d="M12.0293 78.7868C10.4677 80.0265 10.2725 82.5547 11.6389 83.7945C12.3953 84.4752 15.6161 84.9613 15.6161 84.4022C15.6161 84.2807 15.7381 83.8431 15.9089 83.4299C16.1529 82.7735 15.9333 82.7006 14.5669 82.968L12.9321 83.284L14.5181 81.8011C17.5681 78.9569 15.2989 76.2343 12.0293 78.7868ZM14.1521 79.9536C14.1521 80.3426 13.7129 80.9017 13.1761 81.1934C12.0537 81.8011 11.7853 80.8287 12.7857 79.8321C13.5665 79.0542 14.1521 79.1028 14.1521 79.9536Z" fill="white"/>
<path d="M39.0401 78.7625C37.8445 79.9536 37.7469 82.7492 38.8693 83.8674C39.8697 84.8641 42.6269 84.6697 42.8465 83.5757C42.9685 82.9437 42.7001 82.8221 41.6265 83.0166L40.2601 83.2354L41.6021 81.947C43.7005 79.9293 43.2369 77.7901 40.6993 77.7901C40.3333 77.7901 39.5769 78.2277 39.0401 78.7625ZM41.4801 79.7105C41.4801 79.9536 41.1141 80.5127 40.6505 80.9746C39.6501 81.9713 39.1133 81.0719 40.0405 79.9536C40.6993 79.1514 41.4801 79.0299 41.4801 79.7105Z" fill="white"/>
<path d="M47.8242 79.6862C47.8242 81.4608 46.8726 83.0166 46.1894 82.3116C46.0186 82.1414 45.8722 81.1448 45.8722 80.0995C45.8722 77.4984 44.2374 77.6442 44.0178 80.2453C43.725 83.6486 45.5306 85.7149 47.2386 84.0133C47.7022 83.5514 47.8242 83.6243 47.8242 84.2564C47.8242 84.7182 47.995 85.0829 48.1902 85.0829C49.8006 85.0343 50.2886 77.7901 48.6782 77.7901C48.0194 77.7901 47.8242 78.2033 47.8242 79.6862Z" fill="white"/>
<path d="M73.4196 78.9812C71.1016 81.3149 72.4192 84.7669 75.5668 84.4994C76.7868 84.4022 77.3968 84.0862 77.4944 83.5028C77.6408 82.7978 77.3968 82.7006 76.0304 82.9436L74.42 83.2354L76.006 81.9227C77.6652 80.5856 78.0068 79.3702 77.0064 78.3735C76.0792 77.4497 74.7128 77.6928 73.4196 78.9812ZM75.64 79.9293C75.64 80.7315 74.4444 81.8011 74.0296 81.3635C73.6392 80.9746 74.5664 79.2486 75.1764 79.2486C75.4204 79.2486 75.64 79.5403 75.64 79.9293Z" fill="white"/>
<path d="M79.4221 78.3249C78.2753 78.9812 78.3485 80.1724 79.5929 81.4851C80.7153 82.7006 80.4957 83.6243 79.0317 83.6243C78.4217 83.6243 78.2021 83.8674 78.3973 84.3536C78.8121 85.4232 80.2761 85.2288 81.8377 83.9161L83.2041 82.7249L81.8621 81.3149C80.2517 79.6619 80.2273 79.4431 81.4961 79.1028C82.0329 78.9569 82.4721 78.6166 82.4721 78.3249C82.4721 77.6685 80.5689 77.6442 79.4221 78.3249Z" fill="white"/>
<path d="M87.23 78.4707C86.0832 79.3458 86.1564 80.4884 87.4252 81.3878C88.5476 82.1657 88.3768 83.6243 87.1324 83.6243C86.7176 83.6243 86.376 83.9403 86.376 84.3536C86.376 85.3989 87.9864 85.253 89.4748 84.0862C91.0852 82.8221 91.0852 82.506 89.426 80.9502L88.084 79.7105L89.182 79.4187C89.792 79.2729 90.28 78.8353 90.28 78.4707C90.28 77.6199 88.3524 77.6199 87.23 78.4707Z" fill="white"/>
<path d="M92.0612 78.5194C91.8416 79.0785 92.1588 79.2486 93.3544 79.273L94.916 79.3216L93.3056 80.0995C90.4508 81.5337 90.8168 85.01 93.7936 84.4022C94.5988 84.2564 95.16 84.3536 95.16 84.6453C95.16 84.9127 95.5504 85.0829 96.014 84.9857C97.1852 84.7669 96.9656 79.3216 95.77 78.3978C94.672 77.5713 92.4028 77.6442 92.0612 78.5194ZM95.16 81.8984C95.16 82.8221 94.3304 83.3083 93.3788 82.9437C92.7444 82.7006 92.72 82.5061 93.208 81.9227C93.9888 80.9989 95.16 80.9746 95.16 81.8984Z" fill="white"/>
<path d="M109.19 78.3978C107.946 79.3216 107.311 81.4851 107.848 82.8707C108.556 84.7426 112.289 85.2774 112.631 83.5514C112.728 82.968 112.484 82.8221 111.533 83.0166C109.947 83.3083 109.947 82.8221 111.508 81.5823C113.485 80.0265 112.948 77.7901 110.581 77.7901C110.264 77.7901 109.629 78.0575 109.19 78.3978ZM111.264 79.6619C111.264 79.8807 110.825 80.4641 110.288 80.9503C109.19 81.947 108.824 80.9017 109.898 79.8321C110.581 79.1514 111.264 79.0785 111.264 79.6619Z" fill="white"/>
<path d="M114.509 78.6895C113.436 79.8564 113.485 80.5127 114.753 81.3879C115.876 82.1658 115.705 83.6243 114.46 83.6243C114.046 83.6243 113.704 83.9404 113.704 84.3536C113.704 85.8365 117.364 84.6453 117.901 82.9923C118.12 82.3116 117.803 81.7282 116.803 80.9017C115.412 79.7591 115.412 79.7591 116.51 79.4431C117.12 79.273 117.608 78.8354 117.608 78.4707C117.608 77.4741 115.461 77.6442 114.509 78.6895Z" fill="white"/>
<path d="M53.1921 81.4365C53.1921 82.0199 53.9485 82.1658 57.0961 82.1658C60.2437 82.1658 61.0001 82.0199 61.0001 81.4365C61.0001 80.8531 60.2437 80.7072 57.0961 80.7072C53.9485 80.7072 53.1921 80.8531 53.1921 81.4365Z" fill="white"/>
</svg>
